<?xml version="1.0" encoding="UTF-8" standalone="no"?>
<!-- Created with Inkscape (http://www.inkscape.org/) -->

<svg
   xmlns:dc="http://purl.org/dc/elements/1.1/"
   xmlns:cc="http://creativecommons.org/ns#"
   xmlns:rdf="http://www.w3.org/1999/02/22-rdf-syntax-ns#"
   xmlns:svg="http://www.w3.org/2000/svg"
   xmlns="http://www.w3.org/2000/svg"
   xmlns:sodipodi="http://sodipodi.sourceforge.net/DTD/sodipodi-0.dtd"
   xmlns:inkscape="http://www.inkscape.org/namespaces/inkscape"
   width="177.80023mm"
   height="177.82265mm"
   viewBox="0 0 177.80023 177.82265"
   version="1.1"
   id="svg8"
   inkscape:version="0.92.3 (2405546, 2018-03-11)"
   sodipodi:docname="instagram_icon.svg">
  <defs
     id="defs2" />
  <sodipodi:namedview
     id="base"
     pagecolor="#ffffff"
     bordercolor="#666666"
     borderopacity="1.0"
     inkscape:pageopacity="0.0"
     inkscape:pageshadow="2"
     inkscape:zoom="0.35"
     inkscape:cx="-162.57099"
     inkscape:cy="156.0852"
     inkscape:document-units="mm"
     inkscape:current-layer="layer1"
     showgrid="false"
     inkscape:window-width="1920"
     inkscape:window-height="1001"
     inkscape:window-x="-9"
     inkscape:window-y="41"
     inkscape:window-maximized="1" />
  <metadata
     id="metadata5">
    <rdf:RDF>
      <cc:Work
         rdf:about="">
        <dc:format>image/svg+xml</dc:format>
        <dc:type
           rdf:resource="http://purl.org/dc/dcmitype/StillImage" />
        <dc:title></dc:title>
      </cc:Work>
    </rdf:RDF>
  </metadata>
  <g
     inkscape:label="Layer 1"
     inkscape:groupmode="layer"
     id="layer1"
     transform="translate(-21.468931,-12.30822)">
    <path
       style="fill:#e37a77;fill-opacity:1;stroke:#e37a77;stroke-width:0.35299999;stroke-miterlimit:4;stroke-dasharray:none;stroke-opacity:1"
       d="m 73.829463,189.75312 c -14.146082,-0.8492 -24.249703,-3.96722 -32.380457,-9.99275 -9.56369,-7.08744 -15.755615,-17.28874 -18.17247,-29.93944 -1.561143,-8.17159 -1.631105,-10.25671 -1.631105,-48.61259 0,-38.35588 0.06996,-40.441 1.631105,-48.6126 3.931768,-20.5803 17.899607,-34.54814 38.479915,-38.47991 8.171589,-1.56114 10.256714,-1.63111 48.612599,-1.63111 38.35587,0 40.441,0.07 48.61259,1.63111 20.5803,3.93177 34.54814,17.89961 38.47991,38.47991 1.56114,8.1716 1.63111,10.25672 1.63111,48.6126 0,38.35588 -0.07,40.441 -1.63111,48.61259 -3.83695,20.08397 -17.21369,33.87143 -37.06625,38.20431 -8.07809,1.76307 -9.45372,1.8193 -46.85126,1.91499 -19.305762,0.0494 -37.177322,-0.0348 -39.714577,-0.18711 z m 75.874307,-16.56337 c 10.84212,-1.14948 17.31632,-3.83285 23.07106,-9.56229 5.85059,-5.82488 8.47419,-12.30698 9.62888,-23.78995 0.65937,-6.55719 0.65937,-70.70115 0,-77.25834 -1.15317,-11.46793 -3.77119,-17.94484 -9.61593,-23.78957 -5.84473,-5.84474 -12.32164,-8.46276 -23.78957,-9.61593 -6.55719,-0.65937 -70.701145,-0.65937 -77.258335,0 -11.467923,1.15317 -17.944835,3.77119 -23.78957,9.61593 -5.844735,5.84473 -8.462755,12.32164 -9.615932,23.78957 -0.65937,6.55719 -0.65937,70.70115 0,77.25834 1.126604,11.20366 3.735659,17.81423 9.267207,23.48036 6.756238,6.92061 14.146129,9.48342 29.429962,10.20628 9.119845,0.43133 68.005438,0.16037 72.672228,-0.3344 z m -44.80278,-26.47896 c -13.376349,-1.72069 -25.372162,-9.12965 -32.682903,-20.18588 -5.175427,-7.82694 -7.495459,-15.66306 -7.495459,-25.31657 0,-12.7395 4.389776,-23.38906 13.323563,-32.32285 8.93379,-8.93379 19.58335,-13.32357 32.322859,-13.32357 12.7395,0 23.38906,4.38978 32.32285,13.32357 8.93378,8.93379 13.32356,19.58335 13.32356,32.32285 0,5.82351 -0.46224,8.89222 -2.14578,14.24538 -4.1771,13.28192 -15.45953,24.72414 -28.68397,29.0902 -6.08364,2.00852 -14.51455,2.90913 -20.28472,2.16687 z m 11.9248,-16.77749 c 1.3965,-0.30558 4.36207,-1.43726 6.59017,-2.51486 3.72507,-1.80159 4.33888,-2.24706 7.6275,-5.53568 3.28863,-3.28863 3.7341,-3.90243 5.53569,-7.62751 2.37817,-4.91725 3.07045,-7.85888 3.07045,-13.04691 0,-5.18803 -0.69228,-8.12966 -3.07045,-13.04691 -1.80159,-3.72508 -2.24706,-4.33888 -5.53569,-7.62751 -3.28862,-3.28863 -3.90243,-3.7341 -7.6275,-5.53569 -4.91726,-2.37817 -7.85888,-3.07045 -13.04691,-3.07045 -5.18804,0 -8.12967,0.69228 -13.046919,3.07045 -3.725076,1.80159 -4.338881,2.24706 -7.627507,5.53569 -3.288626,3.28863 -3.734097,3.90243 -5.535687,7.62751 -2.37817,4.91725 -3.070451,7.85888 -3.070451,13.04691 0,5.18803 0.692281,8.12966 3.070451,13.04691 1.802081,3.72609 2.245695,4.33719 5.52982,7.61763 3.168414,3.16486 3.992414,3.77597 7.31605,5.42588 2.060014,1.02263 4.917513,2.14707 6.350003,2.49876 3.38908,0.83205 9.98517,0.89854 13.47098,0.13578 z m 37.76914,-65.77737 c -3.11072,-0.95971 -6.35958,-4.34349 -7.2187,-7.51848 -0.98773,-3.65026 0.38977,-8.44704 3.11219,-10.83735 2.37667,-2.08674 3.86331,-2.61842 7.32924,-2.62118 2.85775,-0.002 3.36248,0.10133 5.05137,1.0369 2.09675,1.1615 3.55242,2.66204 4.73351,4.87941 0.65356,1.22698 0.79339,2.04905 0.79339,4.66449 0,2.61544 -0.13983,3.43751 -0.79339,4.6645 -2.05301,3.85431 -5.08015,5.80981 -9.2422,5.97036 -1.46264,0.0564 -3.15708,-0.051 -3.76541,-0.23865 z"
       id="path4529"
       inkscape:connector-curvature="0" />
  </g>
</svg>
