<?xml version="1.0" encoding="UTF-8" standalone="no"?>
<svg
   xmlns:dc="http://purl.org/dc/elements/1.1/"
   xmlns:cc="http://creativecommons.org/ns#"
   xmlns:rdf="http://www.w3.org/1999/02/22-rdf-syntax-ns#"
   xmlns:svg="http://www.w3.org/2000/svg"
   xmlns="http://www.w3.org/2000/svg"
   version="1.1"
   id="svg2"
   width="116"
   height="117.33334"
   viewBox="0 0 116 117.33334">
  <metadata
     id="metadata8">
    <rdf:RDF>
      <cc:Work
         rdf:about="">
        <dc:format>image/svg+xml</dc:format>
        <dc:type
           rdf:resource="http://purl.org/dc/dcmitype/StillImage" />
        <dc:title></dc:title>
      </cc:Work>
    </rdf:RDF>
  </metadata>
  <defs
     id="defs6" />
  <g
     style="display:inline"
     id="g817">
    <path
       style="fill:#dddddd;stroke-width:1.33333337"
       d="m 30.666889,32.000209 c 0,10.666667 0,21.333333 0,32 10.666667,0 21.333333,0 32,0 0,-10.666667 0,-21.333333 0,-32 -10.666667,0 -21.333333,0 -32,0 z m 42.666016,0 c 0,10.666667 0,21.333333 0,32 10.666667,0 21.333335,0 32.000005,0 0,-10.666667 0,-21.333333 0,-32 -10.66667,0 -21.333338,0 -32.000005,0 z"
       id="path823" />
  </g>
  <path
     style="display:inline;fill:#2020fe;stroke-width:1.33333337"
     d="m 52.000874,42.666225 c 0,3.55599 0,7.111979 0,10.667969 3.555338,0 7.110677,0 10.666015,0 0,-3.55599 0,-7.111979 0,-10.667969 -3.555338,0 -7.110677,0 -10.666015,0 z m 42.666015,0 c 0,3.55599 0,7.111979 0,10.667969 3.55534,0 7.110681,0 10.666021,0 0,-3.55599 0,-7.111979 0,-10.667969 -3.55534,0 -7.110681,0 -10.666021,0 z"
     id="path821" />
</svg>
