<?xml version="1.0" encoding="UTF-8" standalone="no"?>
<!-- Created with Inkscape (http://www.inkscape.org/) -->

<svg
   xmlns:dc="http://purl.org/dc/elements/1.1/"
   xmlns:cc="http://creativecommons.org/ns#"
   xmlns:rdf="http://www.w3.org/1999/02/22-rdf-syntax-ns#"
   xmlns:svg="http://www.w3.org/2000/svg"
   xmlns="http://www.w3.org/2000/svg"
   xmlns:sodipodi="http://sodipodi.sourceforge.net/DTD/sodipodi-0.dtd"
   xmlns:inkscape="http://www.inkscape.org/namespaces/inkscape"
   width="240.50626mm"
   height="265.90625mm"
   viewBox="0 0 240.50626 265.90625"
   version="1.1"
   id="svg8"
   sodipodi:docname="Pacman Background.svg"
   inkscape:version="0.92.4 (5da689c313, 2019-01-14)">
  <defs
     id="defs2" />
  <sodipodi:namedview
     id="base"
     pagecolor="#ffffff"
     bordercolor="#666666"
     borderopacity="1.0"
     inkscape:pageopacity="0.0"
     inkscape:pageshadow="2"
     inkscape:zoom="0.7"
     inkscape:cx="679.22233"
     inkscape:cy="596.16323"
     inkscape:document-units="mm"
     inkscape:current-layer="layer1"
     showgrid="false"
     showguides="false"
     inkscape:window-width="1920"
     inkscape:window-height="1001"
     inkscape:window-x="-9"
     inkscape:window-y="41"
     inkscape:window-maximized="1" />
  <metadata
     id="metadata5">
    <rdf:RDF>
      <cc:Work
         rdf:about="">
        <dc:format>image/svg+xml</dc:format>
        <dc:type
           rdf:resource="http://purl.org/dc/dcmitype/StillImage" />
      </cc:Work>
    </rdf:RDF>
  </metadata>
  <g
     inkscape:label="Layer 1"
     inkscape:groupmode="layer"
     id="layer1"
     transform="translate(15.175746,-21.171883)">
    <rect
       style="opacity:1;fill:none;fill-opacity:1;stroke:#0009b6;stroke-width:2.50000007;stroke-linecap:square;stroke-linejoin:round;stroke-miterlimit:0.6;stroke-dasharray:none;stroke-opacity:1"
       id="rect4529"
       width="26.080357"
       height="17.197916"
       x="6.038168"
       y="42.574783" />
    <rect
       style="opacity:1;fill:none;fill-opacity:1;stroke:#0009b6;stroke-width:2.5;stroke-linecap:square;stroke-linejoin:round;stroke-miterlimit:0.60000002;stroke-dasharray:none;stroke-opacity:1"
       id="rect5159"
       width="34.377544"
       height="16.971615"
       x="49.102573"
       y="42.693558" />
    <rect
       style="opacity:1;fill:none;fill-opacity:1;stroke:#0009b6;stroke-width:2.5;stroke-linecap:square;stroke-linejoin:round;stroke-miterlimit:0.60000002;stroke-dasharray:none;stroke-opacity:1"
       id="rect5161"
       width="34.477768"
       height="17.172066"
       x="126.27665"
       y="42.526516" />
    <rect
       style="opacity:1;fill:none;fill-opacity:1;stroke:#0009b6;stroke-width:2.5;stroke-linecap:square;stroke-linejoin:round;stroke-miterlimit:0.60000002;stroke-dasharray:none;stroke-opacity:1"
       id="rect5163"
       width="25.691282"
       height="16.871389"
       x="177.72603"
       y="42.793785" />
    <rect
       style="opacity:1;fill:none;fill-opacity:1;stroke:#0009b6;stroke-width:2.5;stroke-linecap:square;stroke-linejoin:round;stroke-miterlimit:0.60000002;stroke-dasharray:none;stroke-opacity:1"
       id="rect5165"
       width="25.749626"
       height="8.6934528"
       x="177.73384"
       y="76.781631" />
    <rect
       style="opacity:1;fill:none;fill-opacity:1;stroke:#0009b6;stroke-width:2.5;stroke-linecap:square;stroke-linejoin:round;stroke-miterlimit:0.60000002;stroke-dasharray:none;stroke-opacity:1"
       id="rect5167"
       width="26.092188"
       height="8.4189901"
       x="6.2392259"
       y="76.803833" />
    <rect
       style="opacity:1;fill:none;fill-opacity:1;stroke:#0009b6;stroke-width:2.5;stroke-linecap:square;stroke-linejoin:round;stroke-miterlimit:0.60000002;stroke-dasharray:none;stroke-opacity:1"
       id="rect5169"
       width="34.143681"
       height="8.9535294"
       x="49.436661"
       y="205.16002" />
    <rect
       style="opacity:1;fill:none;fill-opacity:1;stroke:#0009b6;stroke-width:2.5;stroke-linecap:square;stroke-linejoin:round;stroke-miterlimit:0.60000002;stroke-dasharray:none;stroke-opacity:1"
       id="rect5171"
       width="34.076862"
       height="8.6862593"
       x="126.4771"
       y="205.36047" />
    <rect
       style="opacity:1;fill:none;fill-opacity:1;stroke:#0009b6;stroke-width:2.5;stroke-linecap:square;stroke-linejoin:round;stroke-miterlimit:0.60000002;stroke-dasharray:none;stroke-opacity:1"
       id="rect5173"
       width="8.7530775"
       height="33.742779"
       x="152.06816"
       y="154.17836" />
    <rect
       style="opacity:1;fill:none;fill-opacity:1;stroke:#0009b6;stroke-width:2.5;stroke-linecap:square;stroke-linejoin:round;stroke-miterlimit:0.60000002;stroke-dasharray:none;stroke-opacity:1"
       id="rect5175"
       width="8.4189901"
       height="33.742779"
       x="49.369846"
       y="154.17836" />
    <path
       style="color:#000000;font-style:normal;font-variant:normal;font-weight:normal;font-stretch:normal;font-size:medium;line-height:normal;font-family:sans-serif;font-variant-ligatures:normal;font-variant-position:normal;font-variant-caps:normal;font-variant-numeric:normal;font-variant-alternates:normal;font-feature-settings:normal;text-indent:0;text-align:start;text-decoration:none;text-decoration-line:none;text-decoration-style:solid;text-decoration-color:#000000;letter-spacing:normal;word-spacing:normal;text-transform:none;writing-mode:lr-tb;direction:ltr;text-orientation:mixed;dominant-baseline:auto;baseline-shift:baseline;text-anchor:start;white-space:normal;shape-padding:0;clip-rule:nonzero;display:inline;overflow:visible;visibility:visible;opacity:1;isolation:auto;mix-blend-mode:normal;color-interpolation:sRGB;color-interpolation-filters:linearRGB;solid-color:#000000;solid-opacity:1;vector-effect:none;fill:#0009b6;fill-opacity:1;fill-rule:nonzero;stroke:none;stroke-width:2.5;stroke-linecap:square;stroke-linejoin:round;stroke-miterlimit:0.60000002;stroke-dasharray:none;stroke-dashoffset:0;stroke-opacity:1;color-rendering:auto;image-rendering:auto;shape-rendering:auto;text-rendering:auto;enable-background:accumulate"
       d="m 113.63086,129.70312 h 20.01562 v 31.31055 H 76.544922 v -31.31055 h 20.007999 l 0.0031,-2.5167 -21.261089,0.0167 c -0.690327,7e-5 -1.249931,0.55967 -1.25,1.25 v 33.81055 c 6.9e-5,0.69033 0.559673,1.24993 1.25,1.25 h 59.601558 c 0.69033,-7e-5 1.24993,-0.55967 1.25,-1.25 v -33.81055 c -7e-5,-0.69033 -0.55967,-1.24993 -1.25,-1.25 h -21.26562"
       id="rect5179"
       inkscape:connector-curvature="0"
       sodipodi:nodetypes="cccccccccccccccc" />
    <rect
       style="opacity:1;fill:#99148f;fill-opacity:1;stroke:none;stroke-width:2.5;stroke-linecap:square;stroke-linejoin:round;stroke-miterlimit:0.60000002;stroke-dasharray:none;stroke-opacity:1"
       id="rect5186"
       width="17.074841"
       height="2.5167"
       x="96.556023"
       y="127.18642" />
    <path
       style="fill:none;stroke:#0009b6;stroke-width:2.5;stroke-linecap:butt;stroke-linejoin:round;stroke-opacity:1;stroke-miterlimit:4;stroke-dasharray:none"
       d="M 49.269194,77.206851 V 136.7381 h 8.598958 v -25.22991 h 25.513392 v -8.88244 H 57.868152 V 77.301347 Z"
       id="path5188"
       inkscape:connector-curvature="0" />
    <path
       style="fill:none;stroke:#0009b6;stroke-width:2.5;stroke-linecap:butt;stroke-linejoin:round;stroke-miterlimit:4;stroke-dasharray:none;stroke-opacity:1"
       d="M 160.63853,77.172846 V 136.7041 h -8.59895 v -25.22991 h -25.5134 v -8.88244 h 25.5134 V 77.267342 Z"
       id="path5188-3"
       inkscape:connector-curvature="0" />
    <path
       style="fill:none;stroke:#0009b6;stroke-width:2.5;stroke-linecap:butt;stroke-linejoin:round;stroke-miterlimit:4;stroke-dasharray:none;stroke-opacity:1"
       d="m 75.196275,76.919725 h 59.531255 v 8.59895 h -25.22991 v 25.513405 h -8.88244 V 85.518675 H 75.290771 Z"
       id="path5188-3-3"
       inkscape:connector-curvature="0" />
    <path
       style="fill:none;stroke:#0009b6;stroke-width:2.5;stroke-linecap:butt;stroke-linejoin:round;stroke-miterlimit:4;stroke-dasharray:none;stroke-opacity:1"
       d="m 75.131193,231.21494 h 59.531257 v 8.59895 H 109.43254 V 265.3273 H 100.5501 V 239.81389 H 75.225693 Z"
       id="path5188-3-3-6"
       inkscape:connector-curvature="0" />
    <path
       style="fill:none;stroke:#0009b6;stroke-width:2.5;stroke-linecap:butt;stroke-linejoin:round;stroke-miterlimit:4;stroke-dasharray:none;stroke-opacity:1"
       d="m 75.066066,179.87463 h 59.531264 v 8.59895 h -25.22991 v 25.51341 h -8.88244 V 188.47358 H 75.160566 Z"
       id="path5188-3-3-6-5"
       inkscape:connector-curvature="0" />
    <path
       style="fill:none;stroke:#0009b6;stroke-width:2.5;stroke-linecap:butt;stroke-linejoin:round;stroke-opacity:1;stroke-miterlimit:4;stroke-dasharray:none"
       d="M 6.5578846,205.34078 H 32.35476 v 34.49033 H 23.472319 V 214.12872 H 6.4633906 Z"
       id="path5267"
       inkscape:connector-curvature="0" />
    <path
       style="fill:none;stroke:#0009b6;stroke-width:2.5;stroke-linecap:butt;stroke-linejoin:round;stroke-miterlimit:4;stroke-dasharray:none;stroke-opacity:1"
       d="m 203.27253,205.15374 h -25.79687 v 34.49033 h 8.88244 v -25.70239 h 17.00893 z"
       id="path5267-7"
       inkscape:connector-curvature="0" />
    <circle
       id="path5284"
       style="fill:#000000;stroke:none"
       cx="151.93452"
       cy="231.28561"
       r="1.5" />
    <circle
       id="path5286"
       style="fill:#000000;stroke:none"
       cx="160.48715"
       cy="231.01836"
       r="1.5" />
    <circle
       id="path5288"
       style="fill:#000000;stroke:none"
       cx="160.75443"
       cy="256.60941"
       r="1.5" />
    <path
       style="fill:none;stroke:#0009b9;stroke-width:2.5;stroke-linecap:butt;stroke-linejoin:round;stroke-miterlimit:4;stroke-dasharray:none;stroke-opacity:1"
       d="m 151.80089,231.2188 h 8.81989 v 25.32379 h 42.82994 v 8.75307 h -77.24089 v -8.55262 h 25.59142 z"
       id="path5290"
       inkscape:connector-curvature="0"
       sodipodi:nodetypes="ccccccccc" />
    <path
       style="fill:none;stroke:#0009b9;stroke-width:2.5;stroke-linecap:butt;stroke-linejoin:round;stroke-miterlimit:4;stroke-dasharray:none;stroke-opacity:1"
       d="m 57.588379,230.88472 h -8.819888 v 25.32379 H 5.9385477 v 8.75307 H 83.17944 v -8.55262 H 57.588019 Z"
       id="path5290-0"
       inkscape:connector-curvature="0"
       sodipodi:nodetypes="ccccccccc" />
    <path
       style="fill:none;stroke:#0009b9;stroke-width:2.5;stroke-linecap:butt;stroke-linejoin:miter;stroke-miterlimit:4;stroke-dasharray:none;stroke-opacity:1"
       d="m -15.200803,136.68891 47.198127,0.18375 v -34.2105 H -8.2267384 l -2.6058776,-2.60588 0.06682,-72.095954 2.6058779,-2.605878 H 100.55196 v 31.871891 l 2.67269,2.672696 h 4.27632 l 1.8899,-3.273409 V 25.28763 h 108.62605 l 2.67269,2.672696 V 100.1231 l -2.73951,2.73951 h -37.35092 l -2.90656,2.90656 v 28.70107 l 2.50109,2.50109 h 45.14151"
       id="path5307"
       inkscape:connector-curvature="0"
       sodipodi:nodetypes="cccccccccccccccccccccc" />
    <path
       style="fill:none;stroke:#0009b9;stroke-width:2.67683864;stroke-linecap:butt;stroke-linejoin:miter;stroke-miterlimit:4;stroke-dasharray:none;stroke-opacity:1"
       d="m -15.176775,154.3758 h 47.51551 v 33.70902 l -40.6249672,0.16704 -2.5724698,2.41961 -0.0059,39.89921 14.6489211,-0.024 2.7066628,2.83084 0.033395,2.17769 -0.012684,1.83117 -2.1032861,2.32499 -15.1988198,-0.022 0.366057,39.55165 2.605878,2.98757 c 0,0 82.338679,0.0766 226.176838,0.0766 l 2.67269,-3.06418 -0.12747,-39.36936 -15.74655,-0.1096 -1.72394,-2.92675 -8.1e-4,-1.81621 0.009,-1.97148 2.18822,-2.03289 15.2454,-0.0635 -0.12712,-39.26215 -2.45603,-3.56601 -38.76833,-0.0472 -1.4419,-1.96211 -0.0472,-28.98353 2.50109,-2.86744 h 44.77905"
       id="path5307-9"
       inkscape:connector-curvature="0"
       sodipodi:nodetypes="cccccccccccccccccccccccccccccc" />
    <path
       style="fill:none;stroke:#545eff;stroke-width:2.71217775;stroke-linecap:butt;stroke-linejoin:miter;stroke-miterlimit:4;stroke-dasharray:none;stroke-opacity:1"
       d="m -15.19348,156.9965 44.865122,0.0594 -0.04631,28.39229 -39.0006497,0.14696 -4.1351163,3.93111 0.416184,90.75318 4.2982344,4.63998 c 0,0 81.5921156,0.0937 228.3865156,0.0937 l 4.10573,-4.878 c 0.0246,-30.33599 -0.0979,-38.64807 -0.2642,-89.27157 l -3.70859,-5.35352 -38.86466,-0.0938 -0.10856,-0.16189 -0.0335,-27.10731 1.24221,-1.46451 h 43.42484"
       id="path5307-9-4"
       inkscape:connector-curvature="0"
       sodipodi:nodetypes="cccccccccccccccc" />
    <path
       style="fill:none;stroke:#545eff;stroke-width:2.36298704;stroke-linecap:butt;stroke-linejoin:miter;stroke-miterlimit:4;stroke-dasharray:none;stroke-opacity:1"
       d="m -15.13172,134.26934 44.730436,0.16704 0.02362,-29.33502 -38.8815693,-0.0279 -3.9750297,-3.99549 0.06927,-74.10578 4.0317864,-4.037998 228.2141856,-0.03048 4.05119,4.254399 -0.0668,73.941104 -4.09257,4.15134 -37.37597,0.041 -1.48123,1.4794 -0.0319,26.72978 1.09549,1.07692 44.14342,-0.0531"
       id="path5307-92"
       inkscape:connector-curvature="0"
       sodipodi:nodetypes="cccccccccccccccc" />
  </g>
</svg>
