<?xml version="1.0" encoding="UTF-8" standalone="no"?>
<svg
   xmlns:dc="http://purl.org/dc/elements/1.1/"
   xmlns:cc="http://creativecommons.org/ns#"
   xmlns:rdf="http://www.w3.org/1999/02/22-rdf-syntax-ns#"
   xmlns:svg="http://www.w3.org/2000/svg"
   xmlns="http://www.w3.org/2000/svg"
   viewBox="0 0 116 117.33334"
   height="117.33334"
   width="116"
   id="svg2"
   version="1.1">
  <metadata
     id="metadata8">
    <rdf:RDF>
      <cc:Work
         rdf:about="">
        <dc:format>image/svg+xml</dc:format>
        <dc:type
           rdf:resource="http://purl.org/dc/dcmitype/StillImage" />
        <dc:title></dc:title>
      </cc:Work>
    </rdf:RDF>
  </metadata>
  <defs
     id="defs6" />
  <g
     id="g817"
     style="display:inline">
    <path
       id="path823"
       d="m 30.666889,32.000209 c 0,10.666667 0,21.333333 0,32 10.666667,0 21.333333,0 32,0 0,-10.666667 0,-21.333333 0,-32 -10.666667,0 -21.333333,0 -32,0 z m 42.666016,0 c 0,10.666667 0,21.333333 0,32 10.666667,0 21.333335,0 32.000005,0 0,-10.666667 0,-21.333333 0,-32 -10.66667,0 -21.333338,0 -32.000005,0 z"
       style="fill:#dddddd;stroke-width:1.33333337" />
  </g>
  <path
     id="path821"
     d="m 52.000874,42.666225 c 0,3.55599 0,7.111979 0,10.667968 3.555338,0 7.110677,0 10.666015,0 0,-3.55599 0,-7.111979 0,-10.667969 -3.555338,0 -7.110677,0 -10.666015,10e-7 z m 42.666015,0 c 0,3.55599 0,7.111979 0,10.667968 3.55534,0 7.110681,0 10.666021,0 0,-3.55599 0,-7.111979 0,-10.667969 -3.55534,0 -7.110681,0 -10.666021,10e-7 z"
     style="display:inline;fill:#2020fe;stroke-width:1.33333337" />
  <path
     style="fill:#dd0000;stroke-width:1.33333325"
     d="M -1.33311,80.000209 V 42.666876 H 4.000224 9.333557 V 32.00021 21.333544 h 5.333333 5.333333 V 16.000211 10.666876 H 30.666889 41.333556 V 5.333544 2.1e-4 h 16 16 v 5.333334 5.333332 h 10.666666 10.666666 v 5.333335 5.333333 h 5.333332 5.33333 v 5.333333 5.333333 H 89.333555 73.333556 v 16 15.999999 H 89.333555 105.33355 V 53.333543 42.666876 h 5.33334 5.33333 v 37.333333 37.333331 h -5.33333 -5.33334 v -5.33333 -5.33334 H 94.666888 84.000222 v 5.33334 5.33333 H 73.333556 62.666889 v -5.33333 -5.33334 h -5.333333 -5.333333 v 5.33334 5.33333 H 41.333556 30.666889 v -5.33333 -5.33334 H 20.000223 9.333557 v 5.33334 5.33333 H 4.000224 -1.33311 Z M 62.666889,48.00021 v -16 H 46.66689 30.666889 v 16 15.999999 H 46.66689 62.666889 Z"
     id="path840" />
</svg>
