<?xml version="1.0" encoding="UTF-8" standalone="no"?>
<svg
   xmlns:dc="http://purl.org/dc/elements/1.1/"
   xmlns:cc="http://creativecommons.org/ns#"
   xmlns:rdf="http://www.w3.org/1999/02/22-rdf-syntax-ns#"
   xmlns:svg="http://www.w3.org/2000/svg"
   xmlns="http://www.w3.org/2000/svg"
   viewBox="0 0 116 117.33334"
   height="117.33334"
   width="116"
   id="svg2"
   version="1.1">
  <metadata
     id="metadata8">
    <rdf:RDF>
      <cc:Work
         rdf:about="">
        <dc:format>image/svg+xml</dc:format>
        <dc:type
           rdf:resource="http://purl.org/dc/dcmitype/StillImage" />
        <dc:title></dc:title>
      </cc:Work>
    </rdf:RDF>
  </metadata>
  <defs
     id="defs6" />
  <g
     id="g817"
     style="display:inline">
    <path
       id="path823"
       d="m 30.666889,32.000209 c 0,10.666667 0,21.333333 0,32 10.666667,0 21.333333,0 32,0 0,-10.666667 0,-21.333333 0,-32 -10.666667,0 -21.333333,0 -32,0 z m 42.666016,0 c 0,10.666667 0,21.333333 0,32 10.666667,0 21.333335,0 32.000005,0 0,-10.666667 0,-21.333333 0,-32 -10.66667,0 -21.333338,0 -32.000005,0 z"
       style="fill:#dddddd;stroke-width:1.33333337" />
  </g>
  <path
     id="path821"
     d="m 52.000874,42.666225 c 0,3.55599 0,7.111979 0,10.667969 3.555338,0 7.110677,0 10.666015,0 0,-3.55599 0,-7.111979 0,-10.667969 -3.555338,0 -7.110677,0 -10.666015,0 z m 42.666015,0 c 0,3.55599 0,7.111979 0,10.667969 3.55534,0 7.110681,0 10.666021,0 0,-3.55599 0,-7.111979 0,-10.667969 -3.55534,0 -7.110681,0 -10.666021,0 z"
     style="display:inline;fill:#2020fe;stroke-width:1.33333337" />
  <path
     id="path819"
     d="M 0,79.999998 C 0,67.555554 0,55.111109 0,42.666665 c 3.1111111,0 6.2222222,0 9.3333333,0 0,-7.111111 0,-14.222221 0,-21.333332 3.5555557,0 7.1111107,0 10.6666667,0 0,-3.555556 0,-7.111111 0,-10.666667 7.111111,0 14.222222,0 21.333333,0 0,-3.5555553 0,-7.1111107 0,-10.666666 10.666667,0 21.333333,0 32,0 0,3.5555553 0,7.1111107 0,10.666666 7.111111,0 14.222223,0 21.333334,0 0,3.555556 0,7.111111 0,10.666667 3.555554,0 7.111113,0 10.666663,0 0,3.555555 0,7.111111 0,10.666666 -10.666666,0 -21.333331,0 -31.999997,0 0,10.666666 0,21.333333 0,31.999999 10.666666,0 21.333331,0 31.999997,0 0,-7.111111 0,-14.222222 0,-21.333333 3.55556,0 7.11111,0 10.66667,0 0,24.888888 0,49.777777 0,74.666665 -7.11111,0 -14.22222,0 -21.333333,0 0,-3.55556 0,-7.11111 0,-10.66667 -7.111111,0 -14.222223,0 -21.333334,0 0,3.55556 0,7.11111 0,10.66667 -10.666667,0 -21.333333,0 -32,0 0,-3.55556 0,-7.11111 0,-10.66667 -7.111111,0 -14.222222,0 -21.333333,0 0,3.55556 0,7.11111 0,10.66667 -6.666667,0 -13.3333333,0 -20,0 C 0,104.88889 0,92.444442 0,79.999998 Z M 62.666667,47.999999 c 0,-5.333333 0,-10.666667 0,-16 -10.666667,0 -21.333333,0 -32,0 0,10.666666 0,21.333333 0,31.999999 10.666667,0 21.333333,0 32,0 0,-5.333333 0,-10.666666 0,-15.999999 z"
     style="display:inline;fill:#dd0000;stroke-width:1.33333337" />
</svg>
