<?xml version="1.0" encoding="UTF-8" standalone="no"?>
<svg
   xmlns:dc="http://purl.org/dc/elements/1.1/"
   xmlns:cc="http://creativecommons.org/ns#"
   xmlns:rdf="http://www.w3.org/1999/02/22-rdf-syntax-ns#"
   xmlns:svg="http://www.w3.org/2000/svg"
   xmlns="http://www.w3.org/2000/svg"
   width="30.691668mm"
   height="30.691669mm"
   viewBox="0 0 30.691668 30.691669"
   version="1.1"
   id="svg8">
  <defs
     id="defs2" />
  <metadata
     id="metadata5">
    <rdf:RDF>
      <cc:Work
         rdf:about="">
        <dc:format>image/svg+xml</dc:format>
        <dc:type
           rdf:resource="http://purl.org/dc/dcmitype/StillImage" />
        <dc:title></dc:title>
      </cc:Work>
    </rdf:RDF>
  </metadata>
  <g
     id="layer1"
     transform="translate(-47.702797,-95.85757)">
    <g
       id="g4529"
       transform="translate(-16.704346,-5.8799296)">
      <path
         style="fill:#2121dd;stroke-width:0.35277778;fill-opacity:1"
         d="m 64.407143,122.55139 v -9.87778 h 1.234722 1.234723 v -2.82222 -2.82222 h 1.411111 1.411111 v -1.41111 -1.41112 h 2.822222 2.822223 v -1.23472 -1.23472 h 4.233333 4.233334 v 1.23472 1.23472 h 2.822222 2.822222 v 1.41112 1.41111 h 1.411111 1.411112 v 2.82222 2.82222 h 1.411111 1.411111 v 9.87778 9.87778 h -2.822222 -2.822223 v -1.41111 -1.41111 h -2.822222 -2.822222 v 1.41111 1.41111 h -4.233334 -4.233333 v -1.41111 -1.41111 H 72.521032 69.69881 v 1.41111 1.41111 h -2.645834 -2.645833 z"
         id="path4533" />
      <path
         style="fill:#ffb5ff;stroke-width:0.35277778;fill-opacity:1"
         d="m 69.69881,125.37361 v -1.41111 h 1.411111 1.411111 v -1.41111 -1.41111 h 1.411111 1.411112 v 1.41111 1.41111 h 1.411111 1.411111 v -1.41111 -1.41111 h 1.411111 1.411111 v 1.41111 1.41111 h 1.411111 1.411112 v -1.41111 -1.41111 h 1.411111 1.411111 v 1.41111 1.41111 h 1.411111 1.411111 v 1.41111 1.41111 h -1.411111 -1.411111 v -1.41111 -1.41111 h -1.411111 -1.411111 v 1.41111 1.41111 H 82.39881 80.987699 v -1.41111 -1.41111 h -1.411111 -1.411111 v 1.41111 1.41111 h -1.411111 -1.411111 v -1.41111 -1.41111 h -1.411112 -1.411111 v 1.41111 1.41111 H 71.109921 69.69881 Z m 2.822222,-12.7 v -2.82222 h 2.822223 2.822222 v 2.82222 2.82222 h -2.822222 -2.822223 z m 8.466667,0 v -2.82222 h 2.822223 2.822222 v 2.82222 2.82222 h -2.822222 -2.822223 z"
         id="path4531" />
    </g>
  </g>
</svg>
