<?xml version="1.0" encoding="UTF-8" standalone="no"?>
<svg
   xmlns:dc="http://purl.org/dc/elements/1.1/"
   xmlns:cc="http://creativecommons.org/ns#"
   xmlns:rdf="http://www.w3.org/1999/02/22-rdf-syntax-ns#"
   xmlns:svg="http://www.w3.org/2000/svg"
   xmlns="http://www.w3.org/2000/svg"
   width="30.691668mm"
   height="30.691669mm"
   viewBox="0 0 30.691668 30.691669"
   version="1.1"
   id="svg8">
  <defs
     id="defs2" />
  <metadata
     id="metadata5">
    <rdf:RDF>
      <cc:Work
         rdf:about="">
        <dc:format>image/svg+xml</dc:format>
        <dc:type
           rdf:resource="http://purl.org/dc/dcmitype/StillImage" />
        <dc:title></dc:title>
      </cc:Work>
    </rdf:RDF>
  </metadata>
  <g
     id="layer1"
     transform="translate(-47.702797,-95.85757)">
    <g
       id="g4546"
       transform="translate(0.84298636,0.79061406)">
      <path
         style="fill:#2121ff;stroke-width:0.35277775;fill-opacity:1"
         d="m 46.520325,116.01542 c 0,-3.29259 0,-6.58519 0,-9.87778 0.940741,0 1.881481,0 2.822222,0 0,-1.88148 0,-3.76296 0,-5.64444 0.940741,0 1.881481,0 2.822222,0 0,-0.940741 0,-1.881482 0,-2.822223 1.881481,0 3.762963,0 5.644444,0 0,-0.940741 0,-1.881481 0,-2.822222 2.822222,0 5.644445,0 8.466667,0 0,0.940741 0,1.881481 0,2.822222 1.881481,0 3.762963,0 5.644444,0 0,0.940741 0,1.881482 0,2.822223 0.940741,0 1.881481,0 2.822222,0 0,1.88148 0,3.76296 0,5.64444 0.940741,0 1.881481,0 2.822222,0 0,6.58519 0,13.17037 0,19.75556 -0.940741,0 -1.881481,0 -2.822222,0 0,-0.94074 0,-1.88148 0,-2.82222 -1.881481,0 -3.762963,0 -5.644444,0 0,0.94074 0,1.88148 0,2.82222 -1.881481,0 -3.762963,0 -5.644444,0 0,-0.94074 0,-1.88148 0,-2.82222 -0.940741,0 -1.881482,0 -2.822223,0 0,0.94074 0,1.88148 0,2.82222 -1.881481,0 -3.762963,0 -5.644444,0 0,-0.94074 0,-1.88148 0,-2.82222 -1.881481,0 -3.762963,0 -5.644444,0 0,0.94074 0,1.88148 0,2.82222 -0.940741,0 -1.881481,0 -2.822222,0 0,-3.29259 0,-6.58519 0,-9.87778 z"
         id="path4550" />
      <path
         style="fill:#ffb5ff;stroke-width:0.35277775;fill-opacity:1"
         d="m 52.164769,118.83764 c 0.115848,-0.41306 -0.233595,-1.29141 0.175614,-1.41111 0.882203,0 1.764405,0 2.646608,0 0,-0.94074 0,-1.88148 0,-2.82222 0.940741,0 1.881481,0 2.822222,0 0,0.94074 0,1.88148 0,2.82222 0.940741,0 1.881481,0 2.822222,0 0,-0.94074 0,-1.88148 0,-2.82222 0.940741,0 1.881482,0 2.822223,0 0,0.94074 0,1.88148 0,2.82222 0.940741,0 1.881481,0 2.822222,0 0,-0.94074 0,-1.88148 0,-2.82222 0.940741,0 1.881481,0 2.822222,0 0,0.94074 0,1.88148 0,2.82222 0.940741,0 1.881481,0 2.822222,0 0,0.94074 0,1.88148 0,2.82222 -0.940741,0 -1.881481,0 -2.822222,0 0,-0.94074 0,-1.88148 0,-2.82222 -0.940741,0 -1.881481,0 -2.822222,0 0,0.94074 0,1.88148 0,2.82222 -0.940741,0 -1.881481,0 -2.822222,0 0,-0.94074 0,-1.88148 0,-2.82222 -0.940741,0 -1.881482,0 -2.822223,0 0,0.94074 0,1.88148 0,2.82222 -0.940741,0 -1.881481,0 -2.822222,0 0,-0.94074 0,-1.88148 0,-2.82222 -0.940741,0 -1.881481,0 -2.822222,0 0,0.94074 0,1.88148 0,2.82222 -0.940741,0 -1.881481,0 -2.822222,0 0,-0.47037 0,-0.94074 0,-1.41111 z m 2.822222,-12.7 c 0,-0.94074 0,-1.88148 0,-2.82222 1.881481,0 3.762963,0 5.644444,0 0,1.88148 0,3.76297 0,5.64445 -1.881481,0 -3.762963,0 -5.644444,0 0,-0.94074 0,-1.88149 0,-2.82223 z m 8.466667,0 c 0,-0.94074 0,-1.88148 0,-2.82222 1.881481,0 3.762963,0 5.644444,0 0,1.88148 0,3.76297 0,5.64445 -1.881481,0 -3.762963,0 -5.644444,0 0,-0.94074 0,-1.88149 0,-2.82223 z"
         id="path4548" />
    </g>
  </g>
</svg>
