<?xml version="1.0" encoding="UTF-8" standalone="no"?>
<svg
   xmlns:dc="http://purl.org/dc/elements/1.1/"
   xmlns:cc="http://creativecommons.org/ns#"
   xmlns:rdf="http://www.w3.org/1999/02/22-rdf-syntax-ns#"
   xmlns:svg="http://www.w3.org/2000/svg"
   xmlns="http://www.w3.org/2000/svg"
   viewBox="0 0 128 128"
   height="128"
   width="128"
   id="svg2"
   version="1.1">
  <metadata
     id="metadata8">
    <rdf:RDF>
      <cc:Work
         rdf:about="">
        <dc:format>image/svg+xml</dc:format>
        <dc:type
           rdf:resource="http://purl.org/dc/dcmitype/StillImage" />
        <dc:title></dc:title>
      </cc:Work>
    </rdf:RDF>
  </metadata>
  <defs
     id="defs6" />
  <g
     id="g817"
     transform="translate(3.33e-4,-3.3e-4)">
    <path
       id="path823"
       d="m 21.333333,53.333333 c 0,-3.555555 0,-7.111111 0,-10.666666 3.555556,0 7.111111,0 10.666667,0 C 32,39.111111 32,35.555556 32,32 c 3.555556,0 7.111111,0 10.666667,0 0,3.555556 0,7.111111 0,10.666667 -3.555556,0 -7.111111,0 -10.666667,0 0,7.111111 0,14.222222 0,21.333333 -3.555556,0 -7.111111,0 -10.666667,0 0,-3.555556 0,-7.111111 0,-10.666667 z"
       style="fill:#dddddd;stroke-width:1.33333337" />
    <path
       id="path821"
       d="m 53.333333,26.666667 c -0.379017,-1.610189 0.786497,-4.76491 -0.634286,-5.333334 -6.899682,0 -13.799365,0 -20.699047,0 0,-3.555555 0,-7.111111 0,-10.666666 -3.555556,0 -7.111111,0 -10.666667,0 0,-3.5555557 0,-7.1111113 0,-10.666667 10.666667,0 21.333333,0 32,0 0,3.5555557 0,7.1111113 0,10.666667 3.555556,0 7.111111,0 10.666667,0 C 64,7.1111113 64,3.5555557 64,0 c 3.555556,0 7.111111,0 10.666667,0 0,7.111111 0,14.222222 0,21.333333 -3.555556,0 -7.111111,0 -10.666667,0 0,3.555556 0,7.111111 0,10.666667 -3.555556,0 -7.111111,0 -10.666667,0 0,-1.777778 0,-3.555555 0,-5.333333 z"
       style="fill:#00dd00;stroke-width:1.33333337" />
    <path
       id="path819"
       d="m 32,112 c -0.379018,-1.61019 0.786498,-4.76491 -0.634286,-5.33333 -3.344127,0 -6.688254,0 -10.032381,0 0,-7.111112 0,-14.222225 0,-21.333337 -3.555555,0 -7.111111,0 -10.666666,0 0,-17.777778 0,-35.555555 0,-53.333333 3.555555,0 7.111111,0 10.666666,0 0,-3.555556 0,-7.111111 0,-10.666667 10.666667,0 21.333333,0 32,0 0,3.555556 0,7.111111 0,10.666667 3.555556,0 7.111111,0 10.666667,0 0,-3.555556 0,-7.111111 0,-10.666667 3.555556,0 7.111111,0 10.666667,0 0,-3.555555 0,-7.111111 0,-10.666666 7.111111,0 14.222222,0 21.333333,0 0,3.555555 0,7.111111 0,10.666666 3.555557,0 7.11111,0 10.66667,0 0,3.555556 0,7.111111 0,10.666667 3.55555,0 7.11111,0 10.66666,0 0,17.777778 0,35.555555 0,53.333333 -3.55555,0 -7.11111,0 -10.66666,0 0,7.111112 0,14.222225 0,21.333337 -3.55556,0 -7.111113,0 -10.66667,0 0,3.55555 0,7.11111 0,10.66666 -7.111111,0 -14.222222,0 -21.333333,0 0,-3.55555 0,-7.11111 0,-10.66666 -7.111111,0 -14.222223,0 -21.333334,0 0,3.55555 0,7.11111 0,10.66666 -7.111111,0 -14.222222,0 -21.333333,0 0,-1.77778 0,-3.55555 0,-5.33333 z m 0,-58.666667 c 0,-3.555555 0,-7.111111 0,-10.666666 3.555556,0 7.111111,0 10.666667,0 0,-3.555556 0,-7.111111 0,-10.666667 C 39.111111,32 35.555556,32 32,32 c 0,3.555556 0,7.111111 0,10.666667 -3.555556,0 -7.111111,0 -10.666667,0 0,7.111111 0,14.222222 0,21.333333 3.555556,0 7.111111,0 10.666667,0 0,-3.555556 0,-7.111111 0,-10.666667 z"
       style="fill:#dd0000;stroke-width:1.33333337" />
  </g>
</svg>
