<?xml version="1.0" encoding="UTF-8" standalone="no"?>
<svg
   xmlns:dc="http://purl.org/dc/elements/1.1/"
   xmlns:cc="http://creativecommons.org/ns#"
   xmlns:rdf="http://www.w3.org/1999/02/22-rdf-syntax-ns#"
   xmlns:svg="http://www.w3.org/2000/svg"
   xmlns="http://www.w3.org/2000/svg"
   viewBox="0 0 128 128"
   height="128"
   width="128"
   id="svg2"
   version="1.1">
  <metadata
     id="metadata8">
    <rdf:RDF>
      <cc:Work
         rdf:about="">
        <dc:format>image/svg+xml</dc:format>
        <dc:type
           rdf:resource="http://purl.org/dc/dcmitype/StillImage" />
        <dc:title></dc:title>
      </cc:Work>
    </rdf:RDF>
  </metadata>
  <defs
     id="defs6" />
  <g
     id="g817"
     transform="translate(3.33e-4,-3.3e-4)">
    <path
       id="path825"
       d="M 64,106.66667 C 64,103.11111 64,99.555557 64,96 c 7.111111,0 14.222222,0 21.333333,0 0,7.11111 0,14.22222 0,21.33333 -7.111111,0 -14.222222,0 -21.333333,0 0,-3.55555 0,-7.11111 0,-10.66666 z M 32,74.666667 C 32,71.111111 32,67.555556 32,64 c 3.555556,0 7.111111,0 10.666667,0 0,-10.666667 0,-21.333333 0,-32 3.555555,0 7.111111,0 10.666666,0 0,-3.555556 0,-7.111111 0,-10.666667 3.555556,0 7.111111,0 10.666667,0 0,3.555556 0,7.111111 0,10.666667 -3.555556,0 -7.111111,0 -10.666667,0 0,10.666667 0,21.333333 0,32 -3.555555,0 -7.111111,0 -10.666666,0 0,7.111111 0,14.222222 0,21.333333 -3.555556,0 -7.111111,0 -10.666667,0 0,-3.555555 0,-7.111111 0,-10.666666 z"
       style="fill:#dddddd;stroke-width:1.33333337" />
    <path
       id="path823"
       d="m 10.666667,85.333333 c 0,-7.111111 0,-14.222222 0,-21.333333 3.555555,0 7.111111,0 10.666666,0 0,-10.666667 0,-21.333333 0,-32 3.555556,0 7.111111,0 10.666667,0 0,-3.555556 0,-7.111111 0,-10.666667 3.555556,0 7.111111,0 10.666667,0 0,-3.555555 0,-7.111111 0,-10.666666 3.555555,0 7.111111,0 10.666666,0 0,-3.5555557 0,-7.1111113 0,-10.666667 7.111111,0 14.222223,0 21.333334,0 0,3.5555557 0,7.1111113 0,10.666667 3.555555,0 7.111111,0 10.666666,0 0,3.555555 0,7.111111 0,10.666666 3.555556,0 7.111111,0 10.666667,0 0,3.555556 0,7.111111 0,10.666667 3.555557,0 7.11111,0 10.66667,0 0,10.666667 0,21.333333 0,32 3.55555,0 7.11111,0 10.66666,0 0,14.222223 0,28.444447 0,42.66667 -3.55555,0 -7.11111,0 -10.66666,0 0,-3.55556 0,-7.111113 0,-10.66667 -28.444446,0 -56.888891,0 -85.333337,0 0,3.555557 0,7.11111 0,10.66667 -3.555555,0 -7.111111,0 -10.666666,0 0,-7.111112 0,-14.222225 0,-21.333337 z m 32,-10.666666 c 0,-3.555556 0,-7.111111 0,-10.666667 3.555555,0 7.111111,0 10.666666,0 0,-10.666667 0,-21.333333 0,-32 3.555556,0 7.111111,0 10.666667,0 0,-3.555556 0,-7.111111 0,-10.666667 -3.555556,0 -7.111111,0 -10.666667,0 0,3.555556 0,7.111111 0,10.666667 -3.555555,0 -7.111111,0 -10.666666,0 0,10.666667 0,21.333333 0,32 C 39.111111,64 35.555556,64 32,64 c 0,7.111111 0,14.222222 0,21.333333 3.555556,0 7.111111,0 10.666667,0 0,-3.555555 0,-7.111111 0,-10.666666 z"
       style="fill:#fefe20;stroke-width:1.33333337" />
    <path
       id="path821"
       d="m 21.333333,106.66667 c 0,-3.55556 0,-7.111113 0,-10.66667 14.222222,0 28.444445,0 42.666667,0 0,7.11111 0,14.22222 0,21.33333 -14.222222,0 -28.444445,0 -42.666667,0 0,-3.55555 0,-7.11111 0,-10.66666 z m 64,0 c 0,-3.55556 0,-7.111113 0,-10.66667 7.111112,0 14.222225,0 21.333337,0 0,7.11111 0,14.22222 0,21.33333 -7.111112,0 -14.222225,0 -21.333337,0 0,-3.55555 0,-7.11111 0,-10.66666 z"
       style="fill:#00dddd;stroke-width:1.33333337" />
    <path
       id="path819"
       d="m 32,16 c 0.379018,-1.610189 -0.786497,-4.76491 0.634286,-5.333333 3.344127,0 6.688254,0 10.032381,0 0,3.555555 0,7.111111 0,10.666666 -3.555556,0 -7.111111,0 -10.666667,0 C 32,19.555555 32,17.777778 32,16 Z m 53.333333,0 c 0.379018,-1.610189 -0.786497,-4.76491 0.634286,-5.333333 3.344127,0 6.688254,0 10.032381,0 0,3.555555 0,7.111111 0,10.666666 -3.555556,0 -7.111111,0 -10.666667,0 0,-1.777778 0,-3.555555 0,-5.333333 z"
       style="fill:#939300;stroke-width:1.33333337" />
  </g>
</svg>
