<?xml version="1.0" encoding="UTF-8" standalone="no"?>
<svg
   xmlns:dc="http://purl.org/dc/elements/1.1/"
   xmlns:cc="http://creativecommons.org/ns#"
   xmlns:rdf="http://www.w3.org/1999/02/22-rdf-syntax-ns#"
   xmlns:svg="http://www.w3.org/2000/svg"
   xmlns="http://www.w3.org/2000/svg"
   viewBox="0 0 126.66667 128"
   height="128"
   width="126.66667"
   id="svg2"
   version="1.1">
  <metadata
     id="metadata8">
    <rdf:RDF>
      <cc:Work
         rdf:about="">
        <dc:format>image/svg+xml</dc:format>
        <dc:type
           rdf:resource="http://purl.org/dc/dcmitype/StillImage" />
        <dc:title></dc:title>
      </cc:Work>
    </rdf:RDF>
  </metadata>
  <defs
     id="defs6" />
  <g
     id="g817"
     transform="translate(-3.336e-4,-3.3e-4)">
    <path
       id="path823"
       d="M 73.333335,101.33333 V 96 h 5.333334 5.333333 v 5.33333 5.33334 H 78.666669 73.333335 Z M 20.000001,80 v -5.333333 h 5.333333 5.333333 V 80 85.333333 h -5.333333 -5.333333 z"
       style="fill:#dddddd;stroke-width:1.33333337" />
    <path
       id="path821"
       d="M 84.000002,64 V 42.666667 h 5.333334 5.333333 V 32 21.333333 H 89.333336 84.000002 V 26.666667 32 H 73.333335 62.666668 v 5.333333 5.333334 H 57.333335 52.000001 V 53.333333 64 H 46.666668 41.333334 V 53.333333 42.666667 h 5.333334 5.333333 V 37.333333 32 h 5.333334 5.333333 V 26.666667 21.333333 H 73.333335 84.000002 V 16 10.666667 H 94.666669 105.33334 V 5.3333333 0 H 116 126.66667 V 10.666667 21.333333 H 116 105.33334 V 32 42.666667 H 100 94.666669 V 64 85.333333 h -5.333333 -5.333334 z"
       style="fill:#dd9349;stroke-width:1.33333337" />
    <path
       id="path819"
       d="m 73.333335,112 v -5.33333 h -5.333333 -5.333334 v -16.000003 -16 H 57.333335 52.000001 V 85.333333 96 h -16 -16 V 90.666667 85.333333 H 14.666667 9.3333336 v -16 -16 h 5.3333334 5.333334 V 48 42.666667 H 30.666667 41.333334 V 53.333333 64 h 5.333334 5.333333 v -5.333333 -5.333334 h 5.333334 5.333333 V 64 74.666667 h 5.333334 5.333333 V 69.333333 64 h 5.333334 5.333333 v 10.666667 10.666666 h 5.333334 5.333333 V 74.666667 64 H 100 h 5.33334 v 5.333333 5.333334 H 110.66667 116 v 16 16.000003 h -5.33333 -5.33333 V 112 117.33333 H 89.333336 73.333335 Z M 84.000002,101.33333 V 96 h -5.333333 -5.333334 v 5.33333 5.33334 h 5.333334 5.333333 z M 30.666667,80 V 74.666667 H 25.333334 20.000001 V 80 85.333333 h 5.333333 5.333333 z"
       style="fill:#dd0000;stroke-width:1.33333337" />
  </g>
</svg>
