<?xml version="1.0" encoding="UTF-8" standalone="no"?>
<svg
   xmlns:dc="http://purl.org/dc/elements/1.1/"
   xmlns:cc="http://creativecommons.org/ns#"
   xmlns:rdf="http://www.w3.org/1999/02/22-rdf-syntax-ns#"
   xmlns:svg="http://www.w3.org/2000/svg"
   xmlns="http://www.w3.org/2000/svg"
   viewBox="0 0 128 128"
   height="128"
   width="128"
   id="svg2"
   version="1.1">
  <metadata
     id="metadata8">
    <rdf:RDF>
      <cc:Work
         rdf:about="">
        <dc:format>image/svg+xml</dc:format>
        <dc:type
           rdf:resource="http://purl.org/dc/dcmitype/StillImage" />
        <dc:title></dc:title>
      </cc:Work>
    </rdf:RDF>
  </metadata>
  <defs
     id="defs6" />
  <g
     id="g817"
     transform="translate(3.33e-4,-3.3e-4)">
    <path
       id="path823"
       d="M 64,16 V 10.666667 H 48 32 V 5.3333333 0 H 58.666667 85.333333 V 5.3333333 10.666667 H 80 74.666667 V 16 21.333333 H 69.333333 64 Z"
       style="fill:#dd9349;stroke-width:1.33333337" />
    <path
       id="path821"
       d="M 64,106.66667 V 96 H 74.666667 85.333333 V 80 64 H 96 106.66667 V 74.666667 85.333333 H 101.33333 96 V 90.666667 96 h -5.333333 -5.333334 v 10.66667 10.66666 H 74.666667 64 Z M 32,96 V 85.333333 h -5.333333 -5.333334 v -16 -16 H 32 42.666667 V 42.666667 32 H 37.333333 32 v 5.333333 5.333334 H 26.666667 21.333333 V 37.333333 32 H 26.666667 32 v -5.333333 -5.333334 h 5.333333 5.333334 V 26.666667 32 H 53.333333 64 V 42.666667 53.333333 H 53.333333 42.666667 V 64 74.666667 H 37.333333 32 V 80 85.333333 H 42.666667 53.333333 V 74.666667 64 H 64 74.666667 V 74.666667 85.333333 H 64 53.333333 V 96 106.66667 H 42.666667 32 Z M 74.666667,42.666667 V 32 H 85.333333 96 V 42.666667 53.333333 H 85.333333 74.666667 Z"
       style="fill:#00dd00;stroke-width:1.33333337" />
    <path
       id="path819"
       d="m 32,112 v -5.33333 H 26.666667 21.333333 V 96 85.333333 H 16 10.666667 V 64 42.666667 H 21.333333 32 V 37.333333 32 h 5.333333 5.333334 V 26.666667 21.333333 H 69.333333 96 V 26.666667 32 h 5.33333 5.33334 V 48 64 H 96 85.333333 V 80 96 H 90.666667 96 v -5.333333 -5.333334 h 5.33333 5.33334 V 90.666667 96 H 101.33333 96 v 5.33333 5.33334 H 90.666667 85.333333 V 101.33333 96 H 74.666667 64 v 10.66667 10.66666 H 48 32 Z M 53.333333,96 V 85.333333 H 64 74.666667 V 74.666667 64 H 64 53.333333 V 74.666667 85.333333 H 42.666667 32 V 80 74.666667 h 5.333333 5.333334 V 64 53.333333 H 53.333333 64 V 42.666667 32 H 53.333333 42.666667 V 42.666667 53.333333 H 32 21.333333 v 16 16 H 26.666667 32 V 96 106.66667 H 42.666667 53.333333 Z M 96,42.666667 V 32 H 85.333333 74.666667 V 42.666667 53.333333 H 85.333333 96 Z"
       style="fill:#494900;stroke-width:1.33333337" />
  </g>
</svg>
