<?xml version="1.0" encoding="UTF-8" standalone="no"?>
<svg
   xmlns:dc="http://purl.org/dc/elements/1.1/"
   xmlns:cc="http://creativecommons.org/ns#"
   xmlns:rdf="http://www.w3.org/1999/02/22-rdf-syntax-ns#"
   xmlns:svg="http://www.w3.org/2000/svg"
   xmlns="http://www.w3.org/2000/svg"
   viewBox="0 0 128 128"
   height="128"
   width="128"
   id="svg2"
   version="1.1">
  <metadata
     id="metadata8">
    <rdf:RDF>
      <cc:Work
         rdf:about="">
        <dc:format>image/svg+xml</dc:format>
        <dc:type
           rdf:resource="http://purl.org/dc/dcmitype/StillImage" />
        <dc:title></dc:title>
      </cc:Work>
    </rdf:RDF>
  </metadata>
  <defs
     id="defs6" />
  <g
     id="g817"
     transform="translate(0,-3.3e-4)">
    <path
       id="path821"
       d="m 64,112 v -5.33333 h -5.333333 -5.333334 v -32.000003 -32 H 64 74.666667 V 48 53.333333 H 80 85.333333 V 58.666667 64 H 90.666667 96 v 5.333333 5.333334 H 90.666667 85.333333 V 80 85.333333 H 90.666667 96 V 90.666667 96 h -5.333333 -5.333334 v 5.33333 5.33334 H 80 74.666667 V 112 117.33333 H 69.333333 64 Z M 74.666667,80 V 53.333333 H 69.333333 64 V 80 106.66667 h 5.333333 5.333334 z"
       style="fill:#dddddd;stroke-width:1.33333337" />
    <path
       id="path819"
       d="M 42.666667,37.333333 V 32 H 37.333333 32 V 21.333333 10.666667 h 5.333333 5.333334 V 5.3333333 0 H 64 85.333333 V 5.3333333 10.666667 H 90.666667 96 V 21.333333 32 h -5.333333 -5.333334 v 5.333333 5.333334 H 64 42.666667 Z M 74.666667,16 V 10.666667 H 64 53.333333 V 16 21.333333 H 64 74.666667 Z"
       style="fill:#00dddd;stroke-width:1.33333337" />
  </g>
</svg>
