<?xml version="1.0" encoding="UTF-8" standalone="no"?>
<svg
   xmlns:dc="http://purl.org/dc/elements/1.1/"
   xmlns:cc="http://creativecommons.org/ns#"
   xmlns:rdf="http://www.w3.org/1999/02/22-rdf-syntax-ns#"
   xmlns:svg="http://www.w3.org/2000/svg"
   xmlns="http://www.w3.org/2000/svg"
   viewBox="0 0 128 128"
   height="128"
   width="128"
   id="svg2"
   version="1.1">
  <metadata
     id="metadata8">
    <rdf:RDF>
      <cc:Work
         rdf:about="">
        <dc:format>image/svg+xml</dc:format>
        <dc:type
           rdf:resource="http://purl.org/dc/dcmitype/StillImage" />
        <dc:title></dc:title>
      </cc:Work>
    </rdf:RDF>
  </metadata>
  <defs
     id="defs6" />
  <g
     id="g817"
     transform="translate(3.33e-4,-3.3e-4)">
    <path
       id="path823"
       d="M 64,90.666667 V 64 H 58.666667 53.333333 V 58.666667 53.333333 H 48 42.666667 V 48 42.666667 H 37.333333 32 V 37.333333 32 H 26.666667 21.333333 V 26.666667 21.333333 H 26.666667 32 V 26.666667 32 h 10.666667 10.666666 v 5.333333 5.333334 H 58.666667 64 V 37.333333 32 h 5.333333 5.333334 v 5.333333 5.333334 H 80 85.333333 V 37.333333 32 H 96 106.66667 V 26.666667 21.333333 H 112 117.33333 V 26.666667 32 H 112 106.66667 v 5.333333 5.333334 H 101.33333 96 V 48 53.333333 H 90.666667 85.333333 V 58.666667 64 H 80 74.666667 V 90.666667 117.33333 H 69.333333 64 Z"
       style="fill:#fefe20;stroke-width:1.33333337" />
    <path
       id="path821"
       d="M 42.666667,80 V 74.666667 H 37.333333 32 V 69.333333 64 H 26.666667 21.333333 V 58.666667 53.333333 H 16 10.666667 V 26.666667 0 H 16 21.333333 V 16 32 H 26.666667 32 v 5.333333 5.333334 h 5.333333 5.333334 V 48 53.333333 H 48 53.333333 V 58.666667 64 H 58.666667 64 v 5.333333 5.333334 H 58.666667 53.333333 V 80 85.333333 H 48 42.666667 Z m 42.666666,0 V 74.666667 H 80 74.666667 V 69.333333 64 H 80 85.333333 V 58.666667 53.333333 H 90.666667 96 V 48 42.666667 h 5.33333 5.33334 V 37.333333 32 H 112 117.33333 V 16 0 H 122.66667 128 v 26.666667 26.666666 h -5.33333 -5.33334 V 58.666667 64 H 112 106.66667 v 5.333333 5.333334 H 101.33333 96 V 80 85.333333 h -5.333333 -5.333334 z"
       style="fill:#206afe;stroke-width:1.33333337" />
    <path
       id="path819"
       d="M 53.333333,37.333333 V 32 H 42.666667 32 V 26.666667 21.333333 H 42.666667 53.333333 V 16 10.666667 H 58.666667 64 V 5.3333333 0 h 5.333333 5.333334 V 5.3333333 10.666667 H 80 85.333333 V 16 21.333333 H 96 106.66667 V 26.666667 32 H 96 85.333333 v 5.333333 5.333334 H 80 74.666667 V 37.333333 32 H 69.333333 64 v 5.333333 5.333334 h -5.333333 -5.333334 z"
       style="fill:#dd0000;stroke-width:1.33333337" />
  </g>
</svg>
