<?xml version="1.0" encoding="UTF-8" standalone="no"?>
<svg
   xmlns:dc="http://purl.org/dc/elements/1.1/"
   xmlns:cc="http://creativecommons.org/ns#"
   xmlns:rdf="http://www.w3.org/1999/02/22-rdf-syntax-ns#"
   xmlns:svg="http://www.w3.org/2000/svg"
   xmlns="http://www.w3.org/2000/svg"
   viewBox="0 0 128 128"
   height="128"
   width="128"
   id="svg2"
   version="1.1">
  <metadata
     id="metadata8">
    <rdf:RDF>
      <cc:Work
         rdf:about="">
        <dc:format>image/svg+xml</dc:format>
        <dc:type
           rdf:resource="http://purl.org/dc/dcmitype/StillImage" />
        <dc:title></dc:title>
      </cc:Work>
    </rdf:RDF>
  </metadata>
  <defs
     id="defs6" />
  <g
     id="g817"
     transform="translate(3.33e-4,-3.3e-4)">
    <path
       transform="translate(-3.33e-4,3.3e-4)"
       id="path823"
       d="M 64 0 L 64 10.666016 L 64 21.332031 L 69.333984 21.332031 L 74.667969 21.332031 L 74.667969 10.666016 L 74.667969 0 L 69.333984 0 L 64 0 z M 85.333984 21.332031 L 85.333984 26.666016 L 85.333984 32 L 96 32 L 96 26.666016 L 96 21.332031 L 90.667969 21.332031 L 85.333984 21.332031 z M 21.333984 32 L 21.333984 37.332031 L 21.333984 42.666016 L 26.667969 42.666016 L 32 42.666016 L 32 37.332031 L 32 32 L 26.667969 32 L 21.333984 32 z M 42.667969 32 L 42.667969 37.332031 L 42.667969 42.666016 L 48 42.666016 L 53.333984 42.666016 L 53.333984 37.332031 L 53.333984 32 L 48 32 L 42.667969 32 z M 74.667969 42.666016 L 74.667969 48 L 74.667969 53.332031 L 80 53.332031 L 85.333984 53.332031 L 85.333984 48 L 85.333984 42.666016 L 80 42.666016 L 74.667969 42.666016 z M 96 42.666016 L 96 48 L 96 53.332031 L 101.33398 53.332031 L 106.66797 53.332031 L 106.66797 48 L 106.66797 42.666016 L 101.33398 42.666016 L 96 42.666016 z M 32 53.332031 L 32 58.666016 L 32 64 L 37.333984 64 L 42.667969 64 L 42.667969 58.666016 L 42.667969 53.332031 L 37.333984 53.332031 L 32 53.332031 z M 53.333984 53.332031 L 53.333984 58.666016 L 53.333984 64 L 58.667969 64 L 64 64 L 64 58.666016 L 64 53.332031 L 58.667969 53.332031 L 53.333984 53.332031 z M 85.333984 64 L 85.333984 69.166016 L 85.333984 69.332031 L 85.333984 74.666016 L 90.667969 74.666016 L 96 74.666016 C 96 74.665166 96 74.664912 96 74.664062 L 96 69.332031 L 96 64 L 90.667969 64 L 85.333984 64 z M 32 74.666016 L 32 80 L 32 85.332031 L 37.333984 85.332031 L 42.667969 85.332031 L 42.667969 80 L 42.667969 74.666016 L 37.333984 74.666016 L 32 74.666016 z M 53.333984 74.666016 L 53.333984 80 L 53.333984 85.332031 L 58.667969 85.332031 L 64 85.332031 L 64 80 L 64 74.666016 L 58.667969 74.666016 L 53.333984 74.666016 z M 74.667969 85.332031 L 74.667969 90.666016 L 74.667969 96 L 80 96 L 85.333984 96 L 85.333984 90.666016 L 85.333984 85.332031 L 80 85.332031 L 74.667969 85.332031 z M 53.333984 96 L 53.333984 101.33203 L 53.333984 106.66602 L 58.667969 106.66602 L 64 106.66602 L 64 101.33203 L 64 96 L 58.667969 96 L 53.333984 96 z "
       style="fill:#dddddd;stroke-width:1.33333337" />
    <path
       id="path821"
       d="M 64,37.333333 V 32 H 58.666667 53.333333 V 26.666667 21.333333 H 42.666667 32 V 16 10.666667 H 48 64 V 16 21.333333 h 5.333333 5.333334 V 16 10.666667 h 16 16.000003 V 16 21.333333 H 96 85.333333 V 26.666667 32 H 80 74.666667 v 5.333333 5.333334 H 69.333333 64 Z"
       style="fill:#00dd00;stroke-width:1.33333337" />
  </g>
  <path
     id="path819-6"
     d="m 53.333974,111.99935 v -5.33333 h -5.33333 -5.33333 v -5.33334 -5.333328 h -5.33333 -5.33334 v -5.33334 -5.33333 h -5.33333 -5.33333 V 74.666016 63.999349 h -5.33334 -5.33333 v -16 -16 h 5.33333 5.33334 v -5.333333 -5.333334 h 16 15.99999 v 5.333334 5.333333 h 5.33334 5.33333 v 5.333333 5.333334 h 5.33333 5.33334 v -5.333334 -5.333333 h 10.66666 10.66667 v -5.333333 -5.333334 h 5.333326 5.33334 v 5.333334 5.333333 h 5.33333 5.33333 v 16 16 h -5.33333 -5.33333 v 10.666667 10.666666 h -5.33334 -5.333326 v 5.33333 5.33334 h -5.33333 -5.33334 v 5.333328 5.33334 h -5.33333 -5.33333 v 5.33333 5.33333 h -10.66667 -10.66667 z m 10.66667,-10.66667 v -5.333328 h -5.33333 -5.33334 v 5.333328 5.33334 h 5.33334 5.33333 z m 21.33333,-10.666668 v -5.33333 h -5.33333 -5.33333 v 5.33333 5.33334 h 5.33333 5.33333 z M 42.667314,79.999349 v -5.333333 h -5.33333 -5.33334 v 5.333333 5.333333 h 5.33334 5.33333 z m 21.33333,0 v -5.333333 h -5.33333 -5.33334 v 5.333333 5.333333 h 5.33334 5.33333 z m 32,-10.666667 v -5.333333 h -5.33333 -5.33334 v 5.333333 5.333334 h 5.33334 5.33333 z M 42.667314,58.666016 v -5.333334 h -5.33333 -5.33334 v 5.333334 5.333333 h 5.33334 5.33333 z m 21.33333,0 v -5.333334 h -5.33333 -5.33334 v 5.333334 5.333333 h 5.33334 5.33333 z m 21.33333,-10.666667 v -5.333333 h -5.33333 -5.33333 v 5.333333 5.333333 h 5.33333 5.33333 z m 21.333336,0 v -5.333333 h -5.33334 -5.333326 v 5.333333 5.333333 h 5.333326 5.33334 z M 32.000644,37.332682 v -5.333333 h -5.33333 -5.33333 v 5.333333 5.333334 h 5.33333 5.33333 z m 21.33333,0 v -5.333333 h -5.33333 -5.33333 v 5.333333 5.333334 h 5.33333 5.33333 z"
     style="fill:#dd0000;stroke-width:1.33333337" />
</svg>
